#!OML:ASF F:\twosubjects\two\Thursday\Session 1\justin.ASF
:FULLY-SPECIFIED
:DEGREES
256
root 9.67254 16.652 -19.9607 -8.5484 -82.7747 15.8714
lowerback 2.78542 0.411319 -0.0802156
upperback -0.967726 0.59183 3.3075
thorax -2.59417 0.309875 3.42415
lowerneck -27.6254 7.04682 -4.04446
upperneck 22.3511 10.7157 2.82103
head 11.4113 4.83522 3.52934
rclavicle -5.76476e-015 1.11319e-014
rhumerus -38.5779 -30.5596 -61.0727
rradius 23.7102
rwrist 3.74572
rhand -7.79358 6.08213
rfingers 7.12502
rthumb 18.1074 -23.095
lclavicle -5.76476e-015 1.11319e-014
lhumerus -30.8293 10.3533 78.1264
lradius 24.9963
lwrist -13.2312
lhand 1.75276 43.962
lfingers 7.12502
lthumb 27.2681 72.0106
rfemur -22.8228 -3.26022 23.2087
rtibia 52.9543
rfoot -34.8996 -8.95048
rtoes -2.29384
lfemur -23.3642 3.05935 -22.1563
ltibia 46.0175
lfoot -25.7087 -3.98128
ltoes 4.50894
257
root 9.70587 16.595 -19.9595 -7.94833 -82.4377 15.3041
lowerback 3.09701 0.249135 -0.244885
upperback -0.868109 0.37319 3.44982
thorax -2.65613 0.203545 3.67608
lowerneck -28.0182 7.15943 -4.21506
upperneck 22.2406 10.9392 2.88569
head 11.4139 4.9319 3.62701
rclavicle 3.65764e-014 -3.18055e-015
rhumerus -38.069 -31.5178 -60.3796
rradius 24.1338
rwrist 2.75446
rhand -9.61382 5.97216
rfingers 7.12502
rthumb 16.3555 -23.3582
lclavicle 3.65764e-014 -3.18055e-015
lhumerus -30.6223 12.0319 77.2942
lradius 25.0382
lwrist -13.2231
lhand 1.67353 44.2425
lfingers 7.12502
lthumb 27.1923 72.3029
rfemur -23.5296 -3.6434 23.2333
rtibia 54.0129
rfoot -35.269 -8.94593
rtoes -1.54262
lfemur -24.1983 2.50761 -22.1884
ltibia 47.281
lfoot -25.9769 -4.11029
ltoes 6.37467
258
root 9.73566 16.5362 -19.9599 -7.9971 -82.2514 15.1802
lowerback 3.65662 0.195393 -0.463803
upperback -0.786374 0.29979 3.48711
thorax -2.88376 0.172584 3.84378
lowerneck -27.9965 7.24537 -3.89332
upperneck 21.9688 11.0589 2.37523
head 11.3584 4.94979 3.39991
rclavicle 2.34566e-014 3.65764e-014
rhumerus -37.8455 -32.2806 -59.7604
rradius 24.745
rwrist 1.16031
rhand -11.0475 5.77608
rfingers 7.12502
rthumb 14.9747 -23.6625
lclavicle 2.34566e-014 3.65764e-014
lhumerus -30.562 13.3783 76.3873
lradius 25.2156
lwrist -13.3082
lhand 1.33874 44.4881
lfingers 7.12502
lthumb 26.872 72.5982
rfemur -23.8596 -3.58732 23.2206
rtibia 54.9252
rfoot -35.6258 -9.01148
rtoes -0.339208
lfemur -24.7254 2.14209 -22.2492
ltibia 48.5108
lfoot -26.5803 -3.3415
ltoes 4.52318
259
root 9.76086 16.4705 -19.9627 -9.64682 -82.1088 16.5479
lowerback 4.2416 0.213445 -0.894542
upperback -0.656817 0.307355 3.43909
thorax -3.08235 0.185578 4.03848
lowerneck -27.8454 7.27922 -3.44243
upperneck 21.6217 11.0779 1.73964
head 11.2738 4.91955 3.08451
rclavicle -2.20651e-014 -1.74931e-014
rhumerus -37.5134 -32.6808 -59.4177
rradius 25.2276
rwrist -0.601428
rhand -12.2282 5.62314
rfingers 7.12502
rthumb 13.8371 -23.8966
lclavicle -2.20651e-014 -1.74931e-014
lhumerus -30.3842 13.9374 75.7825
lradius 25.2717
lwrist -13.0549
lhand 0.247505 45.0012
lfingers 7.12502
lthumb 25.8274 73.2677
rfemur -23.9611 -3.52518 23.0697
rtibia 55.6961
rfoot -35.9035 -9.6239
rtoes -1.62804
lfemur -25.0971 1.88088 -22.517
ltibia 49.7463
lfoot -27.3115 -2.03298
ltoes 0.0687403
260
root 9.78817 16.3988 -19.9678 -6.14276 -81.9065 12.7999
lowerback 4.79742 0.122582 -0.628861
upperback -0.625356 0.207274 3.6499
thorax -3.35538 0.133286 4.11784
lowerneck -27.6601 7.35182 -3.38241
upperneck 21.4352 11.1851 1.57312
head 11.1826 4.9592 3.01605
rclavicle 2.06736e-014 -1.43125e-014
rhumerus -36.9514 -31.6515 -59.6187
rradius 25.8642
rwrist -3.09629
rhand -13.3688 5.48183
rfingers 7.12502
rthumb 12.7376 -24.1096
lclavicle 2.06736e-014 -1.43125e-014
lhumerus -30.2589 14.1221 75.4284
lradius 25.1699
lwrist -12.3175
lhand -1.16336 45.7683
lfingers 7.12502
lthumb 24.4756 74.2244
rfemur -24.0766 -3.65974 23.7305
rtibia 56.3323
rfoot -36.184 -10.5546
rtoes -3.60087
lfemur -25.6155 1.51351 -21.9344
ltibia 50.9834
lfoot -27.7721 -2.23389
ltoes 0.975174
261
root 9.81857 16.3333 -19.9817 -0.757716 -81.6601 7.40783
lowerback 5.14113 0.0117484 -0.176295
upperback -0.701446 0.0967194 3.96358
thorax -3.61983 0.0722885 4.20182
lowerneck -27.376 7.44565 -3.39066
upperneck 21.1952 11.3232 1.47677
head 11.0438 5.02148 2.98066
rclavicle -3.37934e-015 1.59028e-015
rhumerus -36.4852 -30.1812 -59.9064
rradius 26.6528
rwrist -5.59644
rhand -14.5157 5.46494
rfingers 7.12502
rthumb 11.6318 -24.1922
lclavicle -3.37934e-015 1.59028e-015
lhumerus -30.122 14.333 75.0492
lradius 24.986
lwrist -11.778
lhand -1.82159 46.5207
lfingers 7.12502
lthumb 23.8445 75.0607
rfemur -24.5224 -3.65171 24.697
rtibia 57.0003
rfoot -36.3343 -11.1199
rtoes -3.94889
lfemur -26.4017 1.24352 -21.0474
ltibia 52.1038
lfoot -27.9553 -2.91772
ltoes 3.57765
262
root 9.83153 16.2841 -19.9869 -0.733871 -81.6123 7.17129
lowerback 5.21548 0.0209323 -0.314248
upperback -0.404025 0.0920166 4.02622
thorax -3.35367 0.0662596 4.34365
lowerneck -27.1226 7.42462 -3.49974
upperneck 20.5402 11.3413 1.30951
head 10.7603 5.029 2.89932
rclavicle 8.74653e-015 -4.77083e-015
rhumerus -35.8119 -29.5827 -60.1113
rradius 27.2131
rwrist -7.1264
rhand -15.8021 5.92813
rfingers 7.12502
rthumb 10.3911 -23.7951
lclavicle 8.74653e-015 -4.77083e-015
lhumerus -29.559 14.6127 74.7898
lradius 24.8147
lwrist -11.7286
lhand -1.92279 46.7422
lfingers 7.12502
lthumb 23.7474 75.2949
rfemur -24.7092 -3.58993 24.7814
rtibia 57.7353
rfoot -36.4386 -11.5714
rtoes -5.3939
lfemur -26.6545 1.23448 -21.1063
ltibia 52.9677
lfoot -28.2889 -2.19759
ltoes 2.07523
263
root 9.8381 16.244 -19.9914 -3.05766 -81.73 9.184
lowerback 5.27615 0.155699 -0.777084
upperback -0.0146301 0.231274 3.94849
thorax -2.99722 0.134524 4.51108
lowerneck -26.5654 7.30151 -3.58023
upperneck 19.5213 11.1939 1.06659
head 10.3066 4.97249 2.73432
rclavicle 3.16068e-014 -1.59028e-015
rhumerus -35.3648 -29.6484 -59.9997
rradius 27.683
rwrist -7.43451
rhand -16.6932 6.68005
rfingers 7.12502
rthumb 9.53136 -23.0844
lclavicle 3.16068e-014 -1.59028e-015
lhumerus -28.8625 14.3698 74.7483
lradius 24.6482
lwrist -11.5838
lhand -2.94064 46.9151
lfingers 7.12502
lthumb 22.7709 75.5912
rfemur -24.7563 -3.33962 24.485
rtibia 58.5071
rfoot -36.8178 -11.7878
rtoes -5.95061
lfemur -26.6392 1.31528 -21.4808
ltibia 53.616
lfoot -28.5791 -1.56033
ltoes 1.26425
264
root 9.84694 16.2021 -20.002 -5.35148 -81.8589 11
lowerback 5.84931 0.264104 -1.25024
upperback 0.148843 0.34611 3.83787
thorax -3.16205 0.199471 4.65709
lowerneck -26.1136 7.36473 -3.07909
upperneck 19.1043 11.1906 0.524912
head 10.1455 4.95756 2.43523
rclavicle -1.59028e-015 -5.24792e-014
rhumerus -35.2595 -29.2771 -59.8447
rradius 28.0401
rwrist -7.2929
rhand -17.1712 7.62596
rfingers 7.12502
rthumb 9.07016 -22.159
lclavicle -1.59028e-015 -5.24792e-014
lhumerus -28.6524 13.571 74.5942
lradius 24.6737
lwrist -11.2255
lhand -4.18212 47.4405
lfingers 7.12502
lthumb 21.5791 76.2583
rfemur -24.5547 -2.93917 24.2579
rtibia 59.2059
rfoot -37.2742 -11.7164
rtoes -4.16203
lfemur -26.3933 1.46596 -21.6952
ltibia 54.1393
lfoot -28.75 -1.63699
ltoes 1.47193
265
root 9.85729 16.1597 -20.0099 -6.52684 -81.8202 11.7514
lowerback 6.34855 0.227001 -1.45838
upperback 0.303939 0.278387 3.73872
thorax -3.27599 0.167936 4.67925
lowerneck -26.4225 7.56621 -2.71851
upperneck 19.558 11.3704 0.504352
head 10.3821 5.04137 2.43394
rclavicle -1.19271e-015 4.92986e-014
rhumerus -34.8487 -28.2655 -60.1321
rradius 28.3575
rwrist -7.67581
rhand -17.8619 8.57729
rfingers 7.12502
rthumb 8.40358 -21.2355
lclavicle -1.19271e-015 4.92986e-014
lhumerus -28.5765 13.1796 74.2532
lradius 24.8398
lwrist -11.421
lhand -4.26748 47.7939
lfingers 7.12502
lthumb 21.4971 76.6211
rfemur -24.4072 -2.81086 24.2404
rtibia 59.7549
rfoot -37.3409 -12.3416
rtoes -4.6414
lfemur -26.2098 1.58114 -21.7686
ltibia 54.6316
lfoot -28.9561 -1.6814
ltoes 0.71736
